<?xml version="1.0" encoding="UTF-8" standalone="no"?>
<!DOCTYPE svg PUBLIC "-//W3C//DTD SVG 1.1//EN" "http://www.w3.org/Graphics/SVG/1.1/DTD/svg11.dtd">
<svg width="100%" height="100%" viewBox="0 0 1254 512" version="1.1" xmlns="http://www.w3.org/2000/svg" xmlns:xlink="http://www.w3.org/1999/xlink" xml:space="preserve" xmlns:serif="http://www.serif.com/" style="fill-rule:evenodd;clip-rule:evenodd;stroke-linejoin:round;stroke-miterlimit:2;">
    <g id="_-6a31f5ff" serif:id="#6a31f5ff" transform="matrix(1,0,0,1,0,-371)">
        <g transform="matrix(1.031914,0,0,1.031914,-19.65421,1.04156)">
            <path d="M285.64,472.19C324.75,456.91 363.6,441 402.55,425.31C395.34,445.94 388.1,466.57 381.16,487.3C374.9,504.71 369.64,522.46 363.19,539.79C360.74,531.47 358.01,523.23 355.07,515.08C353.26,509.4 351.62,503.66 349.3,498.16C330.16,520.03 310.52,541.47 290.71,562.73C285.03,569.35 278.49,575.16 272.84,581.8C268.15,586.4 264.02,591.51 259.34,596.11C274.97,572.77 290.11,549.06 306.85,526.47C302.45,529.46 298.71,533.29 294.48,536.51C271.81,554.03 249.42,571.89 227.16,589.92C260.88,553.04 296.06,517.53 331,481.8C315.88,478.58 300.64,475.95 285.64,472.19Z" style="fill:rgb(106,49,245);fill-rule:nonzero;"/>
        </g>
        <g transform="matrix(1.031914,0,0,1.031914,-19.65421,1.04156)">
            <path d="M1093.3,573.37C1100.58,570.35 1109.71,574.31 1112.11,581.91C1114.69,588.18 1112.08,595.8 1106.38,599.37C1099.91,603.29 1090.15,601.51 1086.24,594.79C1081.64,587.49 1085.02,576.32 1093.3,573.37Z" style="fill:rgb(106,49,245);fill-rule:nonzero;"/>
        </g>
        <g transform="matrix(1.031914,0,0,1.031914,-19.65421,1.04156)">
            <path d="M971.21,712.52C971.41,666.6 971.1,620.68 971.4,574.77C979.46,574.84 987.52,574.88 995.59,574.78C995.73,595.83 995.56,616.89 995.72,637.94C1007.87,622.11 1020.98,607.05 1033.32,591.36C1037.96,585.93 1042.45,580.37 1046.95,574.82C1057.04,574.84 1067.14,574.81 1077.25,574.86C1061.01,595.28 1044.13,615.19 1027.2,635.04C1032.8,643.95 1039.16,652.35 1044.69,661.31C1056.49,678.28 1067.94,695.49 1079.74,712.47C1069.59,712.37 1059.45,712.52 1049.3,712.46C1036.71,692.73 1023.33,673.51 1010.75,653.78C1005.6,659.45 1000.69,665.33 995.68,671.12C995.63,684.89 995.7,698.67 995.62,712.44C987.48,712.5 979.35,712.4 971.21,712.52Z" style="fill:rgb(106,49,245);fill-rule:nonzero;"/>
        </g>
        <g transform="matrix(1.031914,0,0,1.031914,-19.65421,1.04156)">
            <path d="M1137.28,588.87C1144.97,588.77 1152.67,588.79 1160.37,588.88C1160.4,598.41 1160.33,607.94 1160.36,617.47C1167.8,617.17 1175.26,617.45 1182.71,617.37C1182.86,624.1 1182.7,630.83 1182.78,637.57C1175.31,637.37 1167.85,637.76 1160.39,637.54C1160.44,652.27 1160.21,666.99 1160.48,681.71C1160.66,685.69 1162.18,690.19 1166.12,691.89C1171.34,693.93 1177.04,692.5 1182.22,691.06C1183.02,697.5 1184.82,703.76 1185.81,710.18C1175.88,714.82 1164.01,716.28 1153.62,712.31C1147.18,709.92 1141.9,704.66 1139.6,698.19C1135.91,688.54 1137.65,678.04 1137.2,667.98C1136.39,657.86 1137.55,647.73 1137.26,637.59C1131.75,637.47 1126.24,637.77 1120.73,637.56C1120.62,630.85 1120.83,624.14 1120.74,617.43C1126.07,617.29 1131.4,617.43 1136.74,617.38C1137.11,613.6 1137.37,609.78 1136.99,605.99C1136.39,600.28 1137.34,594.58 1137.28,588.87Z" style="fill:rgb(106,49,245);fill-rule:nonzero;"/>
        </g>
        <g transform="matrix(1.031914,0,0,1.031914,-19.65421,1.04156)">
            <path d="M1086.99,617.45C1094.73,617.39 1102.47,617.23 1110.2,617.53C1110.23,649.18 1110.17,680.83 1110.22,712.49C1102.43,712.41 1094.65,712.54 1086.86,712.48C1086.92,680.8 1086.66,649.12 1086.99,617.45Z" style="fill:rgb(106,49,245);fill-rule:nonzero;"/>
        </g>
    </g>
    <g transform="matrix(1.031914,0,0,1.031914,-19.65421,-369.95844)">
        <g id="_-0a9fecff" serif:id="#0a9fecff">
            <path d="M134.17,576.78C162.24,569.58 189.97,561.18 217.95,553.66C223.85,556.57 230.2,558.33 236.25,560.78C224.42,573.84 212.14,586.51 200.71,599.93C213.24,604.19 225.72,608.6 238.25,612.9C239.88,613.42 241.68,614.23 243.37,613.42C253.55,609.89 263.75,606.47 273.95,603.04C276.03,602.18 278.41,601.79 280.17,600.34C286.97,592.66 293.44,584.7 299.75,576.62C305.34,576.55 310.65,574.6 315.87,572.83C318.23,572.12 320.38,570.52 322.89,570.46C331.92,572.21 340.7,575.09 349.77,576.67C349.78,587.82 349.99,598.97 349.63,610.12C313.64,623.73 277.92,638.05 241.76,651.21C221.06,643.23 200.16,635.77 179.6,627.44C164.45,621.78 149.59,615.39 134.36,609.96C134.04,598.9 134.48,587.84 134.17,576.78Z" style="fill:rgb(10,159,236);fill-rule:nonzero;"/>
        </g>
    </g>
    <g id="_-07184dff" serif:id="#07184dff" transform="matrix(1,0,0,1,0,-371)">
        <g transform="matrix(1.031914,0,0,1.031914,-19.65421,1.04156)">
            <path d="M488.53,585.49C496.57,576.81 508.45,572.85 519.97,571.79C531.61,571.12 543.84,572.85 553.83,579.2C562.31,584.43 568.77,592.68 571.84,602.16C564.59,605.35 557.49,608.91 550.07,611.71C547.62,604.62 542.15,598.34 534.84,596.11C526.37,593.63 516.51,593.92 509.08,599.1C501.96,603.92 500.93,615.75 507.77,621.26C514.59,626.95 523.59,628.72 531.86,631.3C543.24,634.83 555.47,638.2 564.07,646.97C572.28,654.89 575.5,666.89 574.3,678.03C573.51,688.77 567.75,698.83 559.38,705.48C548.71,713.29 534.94,715.68 521.99,715C508.49,714.38 494.6,709.86 485.04,699.96C480.14,695.11 476.81,688.96 474.29,682.61C481.44,678.96 488.75,675.62 496.01,672.18C498.14,678.03 501.78,683.49 507.14,686.84C515.24,692 525.56,693.33 534.83,691.11C539.85,689.82 544.92,687.15 547.59,682.53C550.7,677.1 550.44,669.62 546.21,664.84C542.05,660.03 535.79,657.92 529.95,655.94C516.4,651.65 501.76,648.66 490.55,639.35C474.86,626.34 474.21,599.74 488.53,585.49Z" style="fill:rgb(7,24,77);fill-rule:nonzero;"/>
        </g>
        <g transform="matrix(1.031914,0,0,1.031914,-19.65421,1.04156)">
            <path d="M594.43,588.84C602.11,588.91 609.78,588.77 617.47,588.81C617.52,598.31 617.37,607.81 617.44,617.31C624.87,617.42 632.31,617.28 639.74,617.38C639.72,624.11 639.75,630.84 639.77,637.57C632.33,637.55 624.9,637.4 617.47,637.57C617.46,652.05 617.44,666.53 617.46,681.01C617.39,685.29 619.09,689.99 623.23,691.87C628.24,694.35 633.78,692.38 638.77,690.93C639.93,697.36 641.25,703.76 642.55,710.16C632.4,715.25 619.95,716.25 609.45,711.64C599.7,707.24 594.68,696.26 594.46,685.98C594.35,669.84 594.4,653.71 594.37,637.57C589.03,637.49 583.69,637.63 578.36,637.58C578.41,630.84 578.34,624.1 578.37,617.37C583.71,617.37 589.04,617.42 594.37,617.36C594.45,607.85 594.46,598.34 594.43,588.84Z" style="fill:rgb(7,24,77);fill-rule:nonzero;"/>
        </g>
        <g transform="matrix(1.031914,0,0,1.031914,-19.65421,1.04156)">
            <path d="M875.81,627.84C890.25,612.62 915.83,610.16 933.16,621.79C943.33,628.95 949.83,640.59 951.51,652.83C952.76,659.04 952.44,665.38 952.42,671.68C946.32,672.73 940.15,671.49 934.01,671.83C917.71,672.48 901.4,671.92 885.09,672.18C885.55,678.98 888.66,685.58 894.02,689.87C905.57,698.66 924.68,696.1 932.17,683.17C938.18,686.52 943.83,690.48 949.73,694.01C943.79,704.16 933.38,711.49 921.87,713.81C918.66,714.55 915.33,714.52 912.11,715.18C902.03,715.27 891.61,713.45 883.09,707.77C869.02,699.11 861.73,682.13 862.14,665.96C861.54,652.15 866.12,637.88 875.81,627.84M894.18,639.2C889.09,643 886.45,649.14 885.25,655.22C900.12,655.3 914.99,655.28 929.86,655.21C929.69,648.54 926.56,641.86 920.98,638.06C912.99,632.8 901.7,633.29 894.18,639.2Z" style="fill:rgb(7,24,77);fill-rule:nonzero;"/>
        </g>
        <g transform="matrix(1.031914,0,0,1.031914,-19.65421,1.04156)">
            <path d="M658.91,627.95C666.66,619.23 678.35,614.31 689.99,614.55C701.18,614.41 712.57,619.73 718.56,629.4C719.12,625.42 719.3,621.4 719.21,617.39C726.55,617.36 733.89,617.24 741.24,617.47C741.17,639.31 741.22,661.15 741.2,682.99C741.01,692.81 741.61,702.68 740.83,712.48C733.62,712.41 726.41,712.49 719.2,712.42C719.2,708.25 719.19,704.09 719.16,699.93C713.83,707.83 705.23,713.55 695.67,714.58C684.49,716.24 672.63,713.26 663.66,706.34C652.95,697.89 647,684.43 645.97,671C644.46,655.76 648.31,639.38 658.91,627.95M688.53,636.73C679.43,638.79 672.31,646.38 670.15,655.36C667.56,666.25 669.22,679.27 677.81,687.19C686.69,695.64 702.16,695.56 710.8,686.79C717.38,680.81 719.36,671.5 719.19,662.95C718.62,655.46 716.31,647.58 710.56,642.41C704.88,636.75 696.17,635.26 688.53,636.73Z" style="fill:rgb(7,24,77);fill-rule:nonzero;"/>
        </g>
        <g transform="matrix(1.031914,0,0,1.031914,-19.65421,1.04156)">
            <path d="M768.52,626.51C778.51,616.49 793.88,612.29 807.59,615.73C815.38,617.73 822.17,622.73 826.76,629.29C826.8,625.32 826.89,621.35 826.88,617.38C834.18,617.35 841.49,617.26 848.79,617.33C848.89,647.26 848.87,677.18 848.83,707.11C848.82,721.81 843.88,737.56 831.8,746.76C822.86,753.86 811.22,756.2 800.05,756.32C789.15,755.92 777.93,753.46 769.09,746.78C764.55,743.44 761.14,738.92 757.9,734.38C759.04,732.68 760.92,731.78 762.59,730.7C767.23,727.85 771.59,724.55 776.44,722.05C780.31,728.74 787.18,733.6 794.89,734.6C803.98,736.18 814.82,734.48 820.64,726.59C827.33,718.7 826.66,707.87 826.65,698.21C822.52,703.07 817.58,707.41 811.5,709.63C807.85,711.13 803.88,711.44 800.05,712.22C790.3,711.9 780.22,709.82 772.36,703.72C759.81,694.46 753.78,678.27 754.34,663C754.09,649.63 759.08,636.07 768.52,626.51M796.48,636.67C793.11,637.48 789.96,639.08 787.26,641.23C775.95,650.67 774.66,669.21 782.9,681.04C790.48,692.33 808.12,694.11 818.2,685.22C825.57,679.22 827.89,669.1 827.03,660C826.44,651.74 822.12,643.52 814.89,639.22C809.42,635.91 802.64,635.41 796.48,636.67Z" style="fill:rgb(7,24,77);fill-rule:nonzero;"/>
        </g>
    </g>
    <g transform="matrix(1.031914,0,0,1.031914,-19.65421,-369.95844)">
        <g id="_-2375feff" serif:id="#2375feff">
            <path d="M125.42,626.52C126.4,626.16 127.38,626.17 128.35,626.54C166.18,641.13 203.76,656.45 241.77,670.6C241.44,686.07 241.64,701.56 241.82,717.03C241.83,718.99 241.17,720.86 240.57,722.7C229.13,717.91 217.3,714.13 205.84,709.39C170.57,696.22 135.74,681.87 100.36,669C100.35,657.21 100.25,645.43 100.31,633.64C108.61,631.02 117.03,628.82 125.42,626.52Z" style="fill:rgb(35,117,254);fill-rule:nonzero;"/>
        </g>
    </g>
    <g transform="matrix(1.031914,0,0,1.031914,-19.65421,-369.95844)">
        <g id="_-0e57f5ff" serif:id="#0e57f5ff">
            <path d="M355.68,626.75C357.95,625.66 360.38,626.88 362.63,627.42C369.64,629.64 376.8,631.31 383.84,633.45C383.73,645.28 384.02,657.11 383.76,668.94C339.71,685.88 295.65,702.76 251.49,719.42C247.86,720.54 244.44,722.51 240.57,722.7C241.17,720.86 241.83,718.99 241.82,717.03C241.64,701.56 241.44,686.07 241.77,670.6C279.95,656.53 317.64,641.2 355.68,626.75Z" style="fill:rgb(14,87,245);fill-rule:nonzero;"/>
        </g>
    </g>
    <g transform="matrix(1.031914,0,0,1.031914,-19.65421,-369.95844)">
        <g id="_-03288eff" serif:id="#03288eff">
            <path d="M91.36,686.57C94.26,685.34 97.05,687.26 99.73,688.17C128.67,699.1 157.41,710.54 186.22,721.8C204.65,729.11 223.25,736.01 241.61,743.45C241.77,760.32 241.63,777.21 241.66,794.08C241.64,795.81 242.35,797.43 242.99,799.02L243.17,799.46C241.4,799.32 239.68,798.86 238.05,798.17C181.23,776.19 124.41,754.19 67.5,732.45C67.69,719.73 67.63,707 67.51,694.27C75.46,691.69 83.43,689.18 91.36,686.57Z" style="fill:rgb(3,40,142);fill-rule:nonzero;"/>
        </g>
    </g>
    <g transform="matrix(1.031914,0,0,1.031914,-19.65421,-369.95844)">
        <g id="_-041b6aff" serif:id="#041b6aff">
            <path d="M388.49,686.69C391.69,685.25 394.98,687.08 398.04,688C404.39,690.26 410.92,691.98 417.19,694.46C416.92,706.67 417.27,718.89 417.06,731.1C417.4,732.85 415.4,733.1 414.25,733.64C357.12,755.32 300.2,777.54 242.99,799.02C242.35,797.43 241.64,795.81 241.66,794.08C241.63,777.21 241.77,760.32 241.61,743.45C290.67,724.8 339.57,705.71 388.49,686.69Z" style="fill:rgb(4,27,106);fill-rule:nonzero;"/>
        </g>
    </g>
</svg>
