<?xml version="1.0" encoding="UTF-8" standalone="no"?>
<!DOCTYPE svg PUBLIC "-//W3C//DTD SVG 1.1//EN" "http://www.w3.org/Graphics/SVG/1.1/DTD/svg11.dtd">
<svg width="100%" height="100%" viewBox="0 0 512 512" version="1.1" xmlns="http://www.w3.org/2000/svg" xmlns:xlink="http://www.w3.org/1999/xlink" xml:space="preserve" xmlns:serif="http://www.serif.com/" style="fill-rule:evenodd;clip-rule:evenodd;stroke-linejoin:round;stroke-miterlimit:2;">
    <g transform="matrix(1.292754,0,0,1.292754,-57.292417,-535.66303)">
        <path d="M285.64,472.19C324.75,456.91 363.6,441 402.55,425.31C395.34,445.94 388.1,466.57 381.16,487.3C374.9,504.71 369.64,522.46 363.19,539.79C360.74,531.47 358.01,523.23 355.07,515.08C353.26,509.4 351.62,503.66 349.3,498.16C330.16,520.03 310.52,541.47 290.71,562.73C285.03,569.35 278.49,575.16 272.84,581.8C268.15,586.4 264.02,591.51 259.34,596.11C274.97,572.77 290.11,549.06 306.85,526.47C302.45,529.46 298.71,533.29 294.48,536.51C271.81,554.03 249.42,571.89 227.16,589.92C260.88,553.04 296.06,517.53 331,481.8C315.88,478.58 300.64,475.95 285.64,472.19Z" style="fill:rgb(106,49,245);fill-rule:nonzero;"/>
    </g>
    <g transform="matrix(1.292754,0,0,1.292754,-57.292417,-535.66303)">
        <path d="M134.17,576.78C162.24,569.58 189.97,561.18 217.95,553.66C223.85,556.57 230.2,558.33 236.25,560.78C224.42,573.84 212.14,586.51 200.71,599.93C213.24,604.19 225.72,608.6 238.25,612.9C239.88,613.42 241.68,614.23 243.37,613.42C253.55,609.89 263.75,606.47 273.95,603.04C276.03,602.18 278.41,601.79 280.17,600.34C286.97,592.66 293.44,584.7 299.75,576.62C305.34,576.55 310.65,574.6 315.87,572.83C318.23,572.12 320.38,570.52 322.89,570.46C331.92,572.21 340.7,575.09 349.77,576.67C349.78,587.82 349.99,598.97 349.63,610.12C313.64,623.73 277.92,638.05 241.76,651.21C221.06,643.23 200.16,635.77 179.6,627.44C164.45,621.78 149.59,615.39 134.36,609.96C134.04,598.9 134.48,587.84 134.17,576.78Z" style="fill:rgb(10,159,236);fill-rule:nonzero;"/>
    </g>
    <g transform="matrix(1.292754,0,0,1.292754,-57.292417,-535.66303)">
        <path d="M125.42,626.52C126.4,626.16 127.38,626.17 128.35,626.54C166.18,641.13 203.76,656.45 241.77,670.6C241.44,686.07 241.64,701.56 241.82,717.03C241.83,718.99 241.17,720.86 240.57,722.7C229.13,717.91 217.3,714.13 205.84,709.39C170.57,696.22 135.74,681.87 100.36,669C100.35,657.21 100.25,645.43 100.31,633.64C108.61,631.02 117.03,628.82 125.42,626.52Z" style="fill:rgb(35,117,254);fill-rule:nonzero;"/>
    </g>
    <g transform="matrix(1.292754,0,0,1.292754,-57.292417,-535.66303)">
        <path d="M355.68,626.75C357.95,625.66 360.38,626.88 362.63,627.42C369.64,629.64 376.8,631.31 383.84,633.45C383.73,645.28 384.02,657.11 383.76,668.94C339.71,685.88 295.65,702.76 251.49,719.42C247.86,720.54 244.44,722.51 240.57,722.7C241.17,720.86 241.83,718.99 241.82,717.03C241.64,701.56 241.44,686.07 241.77,670.6C279.95,656.53 317.64,641.2 355.68,626.75Z" style="fill:rgb(14,87,245);fill-rule:nonzero;"/>
    </g>
    <g transform="matrix(1.292754,0,0,1.292754,-57.292417,-535.66303)">
        <path d="M91.36,686.57C94.26,685.34 97.05,687.26 99.73,688.17C128.67,699.1 157.41,710.54 186.22,721.8C204.65,729.11 223.25,736.01 241.61,743.45C241.77,760.32 241.63,777.21 241.66,794.08C241.64,795.81 242.35,797.43 242.99,799.02L243.17,799.46C241.4,799.32 239.68,798.86 238.05,798.17C181.23,776.19 124.41,754.19 67.5,732.45C67.69,719.73 67.63,707 67.51,694.27C75.46,691.69 83.43,689.18 91.36,686.57Z" style="fill:rgb(3,40,142);fill-rule:nonzero;"/>
    </g>
    <g transform="matrix(1.292754,0,0,1.292754,-57.292417,-535.66303)">
        <path d="M388.49,686.69C391.69,685.25 394.98,687.08 398.04,688C404.39,690.26 410.92,691.98 417.19,694.46C416.92,706.67 417.27,718.89 417.06,731.1C417.4,732.85 415.4,733.1 414.25,733.64C357.12,755.32 300.2,777.54 242.99,799.02C242.35,797.43 241.64,795.81 241.66,794.08C241.63,777.21 241.77,760.32 241.61,743.45C290.67,724.8 339.57,705.71 388.49,686.69Z" style="fill:rgb(4,27,106);fill-rule:nonzero;"/>
    </g>
</svg>
